<?xml version="1.0" encoding="UTF-8" standalone="no"?>
<!-- Created with Inkscape (http://www.inkscape.org/) -->

<svg
   width="51.858334mm"
   height="51.858334mm"
   viewBox="0 0 51.858334 51.858334"
   version="1.1"
   id="svg1"
   xml:space="preserve"
   inkscape:version="1.3.1 (9b9bdc1480, 2023-11-25, custom)"
   sodipodi:docname="event-icon.svg"
   xmlns:inkscape="http://www.inkscape.org/namespaces/inkscape"
   xmlns:sodipodi="http://sodipodi.sourceforge.net/DTD/sodipodi-0.dtd"
   xmlns:xlink="http://www.w3.org/1999/xlink"
   xmlns="http://www.w3.org/2000/svg"
   xmlns:svg="http://www.w3.org/2000/svg"><sodipodi:namedview
     id="namedview1"
     pagecolor="#ffffff"
     bordercolor="#000000"
     borderopacity="0.25"
     inkscape:showpageshadow="2"
     inkscape:pageopacity="0.0"
     inkscape:pagecheckerboard="0"
     inkscape:deskcolor="#d1d1d1"
     inkscape:document-units="mm"
     inkscape:zoom="2.2485129"
     inkscape:cx="67.377865"
     inkscape:cy="128.30702"
     inkscape:window-width="1600"
     inkscape:window-height="831"
     inkscape:window-x="0"
     inkscape:window-y="0"
     inkscape:window-maximized="1"
     inkscape:current-layer="layer1" /><defs
     id="defs1"><linearGradient
       id="linearGradient1"
       inkscape:collect="always"><stop
         style="stop-color:#00e46b;stop-opacity:1;"
         offset="0"
         id="stop1" /><stop
         style="stop-color:#22ffdf;stop-opacity:1;"
         offset="1"
         id="stop2" /></linearGradient><linearGradient
       inkscape:collect="always"
       xlink:href="#linearGradient1"
       id="linearGradient2"
       x1="85.343567"
       y1="133.09586"
       x2="129.02103"
       y2="176.5264"
       gradientUnits="userSpaceOnUse"
       gradientTransform="matrix(1.1700074,0,0,1.1700074,-21.56963,-34.226261)" /></defs><g
     inkscape:label="Layer 1"
     inkscape:groupmode="layer"
     id="layer1"
     transform="translate(-77.793596,-121.09628)"><circle
       style="fill:url(#linearGradient2);fill-opacity:1;stroke-width:74.4113"
       id="path1"
       cx="103.72276"
       cy="147.02545"
       r="25.929167" /><path
       style="fill:#ffffff;fill-opacity:1;stroke-width:1.26332"
       d="m 93.921798,159.66305 c -0.873697,-0.1847 -1.626705,-0.82788 -1.937037,-1.65455 -0.18334,-0.48837 -0.17363,0.12116 -0.163865,-10.28781 l 0.009,-9.53401 0.0692,-0.25793 c 0.279682,-1.04254 1.056188,-1.77783 2.083234,-1.97265 0.189906,-0.036 0.456816,-0.0486 1.028303,-0.0486 h 0.771825 v -1.31793 -1.31793 h 1.31792 1.31793 v 1.31793 1.31793 h 5.302712 5.30271 v -1.31793 -1.31793 h 1.31793 1.31792 v 1.31793 1.31793 h 0.77183 c 0.85736,0 1.11938,0.0323 1.52424,0.18846 0.64356,0.2481 1.23743,0.84335 1.48698,1.49048 0.19846,0.51462 0.18623,-0.15725 0.18623,10.2289 0,10.40284 0.0126,9.72691 -0.18873,10.22939 -0.13506,0.33729 -0.28936,0.57487 -0.55178,0.84953 -0.39149,0.40978 -0.83643,0.65755 -1.38361,0.7705 -0.26861,0.0554 -0.63867,0.0575 -9.79923,0.0558 -9.038922,-9.5e-4 -9.533389,-0.005 -9.783652,-0.0575 z m 19.063482,-9.87088 0.008,-7.2796 h -9.27207 -9.272062 v 7.26669 c 0,3.99667 0.0094,7.276 0.02073,7.2874 0.01137,0.0114 4.18031,0.0172 9.264242,0.0129 l 9.24351,-0.008 z m -13.241522,2.52715 -2.10093,-2.10111 0.69791,-0.6974 0.69793,-0.6974 1.403042,1.40305 1.40305,1.40304 3.23283,-3.23272 3.23283,-3.23271 0.70543,0.70543 0.70543,0.70543 -3.92265,3.92274 c -2.15747,2.15752 -3.9297,3.92275 -3.9383,3.92275 -0.009,0 -0.96105,-0.9455 -2.116572,-2.1011 z"
       id="path2" /></g></svg>
