<?xml version="1.0" encoding="UTF-8" standalone="no"?>
<!-- Created with Inkscape (http://www.inkscape.org/) -->

<svg
   width="51.858334mm"
   height="51.858334mm"
   viewBox="0 0 51.858334 51.858334"
   version="1.1"
   id="svg1"
   xml:space="preserve"
   inkscape:version="1.3.1 (9b9bdc1480, 2023-11-25, custom)"
   sodipodi:docname="rem-icon.svg"
   xmlns:inkscape="http://www.inkscape.org/namespaces/inkscape"
   xmlns:sodipodi="http://sodipodi.sourceforge.net/DTD/sodipodi-0.dtd"
   xmlns:xlink="http://www.w3.org/1999/xlink"
   xmlns="http://www.w3.org/2000/svg"
   xmlns:svg="http://www.w3.org/2000/svg"><sodipodi:namedview
     id="namedview1"
     pagecolor="#ffffff"
     bordercolor="#000000"
     borderopacity="0.25"
     inkscape:showpageshadow="2"
     inkscape:pageopacity="0.0"
     inkscape:pagecheckerboard="0"
     inkscape:deskcolor="#d1d1d1"
     inkscape:document-units="mm"
     inkscape:zoom="1.5899387"
     inkscape:cx="87.73923"
     inkscape:cy="167.61652"
     inkscape:window-width="1600"
     inkscape:window-height="831"
     inkscape:window-x="0"
     inkscape:window-y="0"
     inkscape:window-maximized="1"
     inkscape:current-layer="layer1" /><defs
     id="defs1"><linearGradient
       id="linearGradient1"
       inkscape:collect="always"><stop
         style="stop-color:#00e46b;stop-opacity:1;"
         offset="0"
         id="stop1" /><stop
         style="stop-color:#22ffdf;stop-opacity:1;"
         offset="1"
         id="stop2" /></linearGradient><linearGradient
       inkscape:collect="always"
       xlink:href="#linearGradient1"
       id="linearGradient2"
       x1="85.343567"
       y1="133.09586"
       x2="129.02103"
       y2="176.5264"
       gradientUnits="userSpaceOnUse"
       gradientTransform="matrix(1.1700074,0,0,1.1700074,-21.56963,-34.226261)" /></defs><g
     inkscape:label="Layer 1"
     inkscape:groupmode="layer"
     id="layer1"
     transform="translate(-77.793596,-121.09628)"><circle
       style="fill:url(#linearGradient2);fill-opacity:1;stroke-width:74.4113"
       id="path1"
       cx="103.72276"
       cy="147.02545"
       r="25.929167" /><path
       style="fill:#ffffff;fill-opacity:1;stroke-width:0.904494"
       d="m 96.517913,157.80614 c 0.212173,-0.63586 0.373974,-1.16599 0.359562,-1.17811 -0.01442,-0.0122 -0.15341,-0.12322 -0.308863,-0.24665 -0.391341,-0.3111 -1.324093,-1.25208 -1.662381,-1.67707 -2.763273,-3.47143 -3.264421,-8.16539 -1.290125,-12.08394 0.351062,-0.69677 0.641639,-1.17033 1.062258,-1.73118 1.847484,-2.46331 4.619168,-4.07252 7.667006,-4.45132 1.52618,-0.18966 3.15685,-0.0507 4.62844,0.3944 0.67031,0.20274 1.04355,0.3521 1.74894,0.69994 2.30379,1.13601 4.08915,2.9499 5.21248,5.29584 0.51283,1.07102 0.84539,2.2111 1.01126,3.46682 0.0851,0.64325 0.0839,2.0858 -10e-4,2.72058 -0.34352,2.53925 -1.36844,4.67239 -3.11261,6.47815 -0.31686,0.32806 -1.01412,0.95555 -1.28019,1.15213 -0.006,0.006 0.16524,0.52594 0.37723,1.16131 l 0.38549,1.15521 -1.18693,-0.009 -1.18692,-0.009 -0.1756,-0.52998 c -0.0966,-0.29148 -0.18031,-0.53554 -0.18608,-0.54235 -0.006,-0.007 -0.21424,0.0748 -0.46331,0.18115 -2.81933,1.20495 -5.96851,1.19929 -8.819888,-0.0159 -0.22958,-0.0979 -0.42218,-0.17225 -0.42798,-0.1654 -0.005,0.007 -0.0896,0.25094 -0.186152,0.54241 l -0.175597,0.52998 -1.186927,0.009 -1.186924,0.009 z m 8.459657,-1.19028 c 1.57234,-0.2356 2.93611,-0.80472 4.21182,-1.75762 0.44147,-0.32979 1.40361,-1.29064 1.73005,-1.72782 0.96543,-1.29283 1.55963,-2.74038 1.78345,-4.34465 0.0606,-0.43377 0.0618,-1.8216 0.001,-2.24355 -0.23466,-1.65936 -0.79998,-3.04284 -1.77873,-4.35315 -0.33251,-0.44517 -1.29181,-1.40448 -1.73698,-1.73698 -1.2983,-0.96979 -2.65447,-1.52778 -4.31781,-1.7765 -0.47824,-0.0715 -1.90831,-0.0618 -2.40256,0.0165 -2.11054,0.33402 -3.819187,1.215 -5.264437,2.71433 -1.35793,1.40874 -2.155638,3.06203 -2.46093,5.10038 -0.06315,0.42168 -0.06287,1.86969 4.58e-4,2.29659 0.301203,2.03058 1.103409,3.69338 2.460472,5.10003 1.525863,1.58161 3.431697,2.51459 5.635427,2.75872 0.4144,0.0458 1.70926,0.0178 2.13756,-0.0464 z m -0.53893,-6.63777 -1.84596,-1.8462 v -3.63023 -3.6302 h 1.13061 1.13061 v 3.15321 3.15322 l 1.52788,1.52817 1.52788,1.52818 -0.79443,0.79504 c -0.43696,0.43727 -0.80261,0.79503 -0.81254,0.79503 -0.009,0 -0.84879,-0.83081 -1.86405,-1.84622 z m -12.443739,-9.27141 c -0.22581,-0.25563 -0.345561,-0.44166 -0.516297,-0.80209 -0.874322,-1.8457 0.09436,-4.04641 2.051476,-4.66063 0.812358,-0.25495 1.670122,-0.19483 2.450848,0.17176 0.321101,0.15072 0.718033,0.41605 0.878117,0.5869 l 0.07845,0.0836 -2.395817,2.39561 -2.395818,2.39563 z m 20.901399,-2.23336 -2.39542,-2.39561 0.17089,-0.15184 c 0.36848,-0.32761 0.9406,-0.62496 1.42501,-0.74063 1.75168,-0.41838 3.50152,0.56831 4.0377,2.27678 0.25904,0.82531 0.19433,1.68701 -0.18575,2.47322 -0.15912,0.32914 -0.4313,0.7326 -0.58907,0.87318 -0.0657,0.0587 -0.14898,-0.0202 -2.46336,-2.33503 z"
       id="path2" /></g></svg>
