<?xml version="1.0" encoding="UTF-8" standalone="no"?>
<!-- Created with Inkscape (http://www.inkscape.org/) -->

<svg
   width="51.858334mm"
   height="51.858334mm"
   viewBox="0 0 51.858334 51.858334"
   version="1.1"
   id="svg1"
   xml:space="preserve"
   inkscape:version="1.3.1 (9b9bdc1480, 2023-11-25, custom)"
   sodipodi:docname="sys-icon.svg"
   xmlns:inkscape="http://www.inkscape.org/namespaces/inkscape"
   xmlns:sodipodi="http://sodipodi.sourceforge.net/DTD/sodipodi-0.dtd"
   xmlns:xlink="http://www.w3.org/1999/xlink"
   xmlns="http://www.w3.org/2000/svg"
   xmlns:svg="http://www.w3.org/2000/svg"><sodipodi:namedview
     id="namedview1"
     pagecolor="#ffffff"
     bordercolor="#000000"
     borderopacity="0.25"
     inkscape:showpageshadow="2"
     inkscape:pageopacity="0.0"
     inkscape:pagecheckerboard="0"
     inkscape:deskcolor="#d1d1d1"
     inkscape:document-units="mm"
     inkscape:zoom="2.2485129"
     inkscape:cx="68.267342"
     inkscape:cy="98.954291"
     inkscape:window-width="1600"
     inkscape:window-height="831"
     inkscape:window-x="0"
     inkscape:window-y="0"
     inkscape:window-maximized="1"
     inkscape:current-layer="layer1" /><defs
     id="defs1"><linearGradient
       id="linearGradient1"
       inkscape:collect="always"><stop
         style="stop-color:#00e46b;stop-opacity:1;"
         offset="0"
         id="stop1" /><stop
         style="stop-color:#22ffdf;stop-opacity:1;"
         offset="1"
         id="stop2" /></linearGradient><linearGradient
       inkscape:collect="always"
       xlink:href="#linearGradient1"
       id="linearGradient2"
       x1="85.343567"
       y1="133.09586"
       x2="129.02103"
       y2="176.5264"
       gradientUnits="userSpaceOnUse"
       gradientTransform="matrix(1.1700074,0,0,1.1700074,-21.56963,-34.226261)" /></defs><g
     inkscape:label="Layer 1"
     inkscape:groupmode="layer"
     id="layer1"
     transform="translate(-77.793596,-121.09628)"><circle
       style="fill:url(#linearGradient2);fill-opacity:1;stroke-width:74.4113"
       id="path1"
       cx="103.72276"
       cy="147.02545"
       r="25.929167" /><path
       style="fill:#ffffff;fill-opacity:1;stroke-width:1.20334"
       d="m 101.63465,159.94498 c -0.14113,-0.0433 -0.32616,-0.2127 -0.35658,-0.32633 -0.0108,-0.0405 -0.12886,-0.78645 -0.26222,-1.65738 l -0.24247,-1.58356 -0.39068,-0.14658 c -0.463294,-0.17381 -0.511924,-0.19407 -0.860966,-0.35871 l -0.268635,-0.12672 -1.20588,0.91593 c -0.663237,0.50377 -1.256009,0.94172 -1.317275,0.97326 -0.145312,0.0747 -0.390545,0.0789 -0.526046,0.009 -0.218075,-0.11251 -1.989399,-1.81889 -2.528694,-2.43589 -0.523227,-0.59864 -0.609032,-0.77399 -0.525645,-1.07422 0.03739,-0.13469 0.153659,-0.29768 0.832694,-1.16763 0.335447,-0.42974 0.708941,-0.91213 0.829986,-1.07197 l 0.220083,-0.29062 -0.159651,-0.32666 c -0.178018,-0.36425 -0.377943,-0.85675 -0.467575,-1.15184 -0.05015,-0.16513 -0.06861,-0.19658 -0.122103,-0.20813 -0.03466,-0.007 -0.335231,-0.0537 -0.667942,-0.10275 -0.332712,-0.0491 -1.021635,-0.1507 -1.530942,-0.22586 -0.509309,-0.0752 -0.957334,-0.15307 -0.995612,-0.17311 -0.100522,-0.0526 -0.223865,-0.189 -0.276265,-0.30541 -0.04223,-0.0939 -0.04588,-0.23543 -0.05244,-2.04031 -0.0049,-1.31907 0.0016,-1.98147 0.0202,-2.07078 0.015,-0.0722 0.06192,-0.18363 0.104306,-0.2476 0.146909,-0.22181 0.109937,-0.21234 1.823361,-0.46689 0.845639,-0.12564 1.564409,-0.23686 1.597265,-0.24717 0.04467,-0.0139 0.07066,-0.0536 0.103004,-0.15735 0.07863,-0.25191 0.300904,-0.78923 0.453571,-1.09644 l 0.150305,-0.30247 -0.05827,-0.0884 c -0.18671,-0.28334 -0.945701,-1.26414 -1.628488,-2.10443 -0.426397,-0.52474 -0.397153,-0.66002 0.319849,-1.4796 0.614749,-0.70269 1.737879,-1.79692 2.213435,-2.15648 0.419782,-0.31736 0.60162,-0.36994 0.856982,-0.24775 0.06932,0.0332 0.523011,0.36895 1.008214,0.7462 0.485204,0.37725 1.019857,0.79213 1.188119,0.92199 l 0.305937,0.23608 0.336802,-0.16023 c 0.317892,-0.15123 0.985466,-0.41967 1.137086,-0.45724 0.0382,-0.009 0.0693,-0.0301 0.0693,-0.046 1e-5,-0.0158 0.0399,-0.3407 0.0887,-0.72193 0.16435,-1.28549 0.33991,-2.28068 0.44572,-2.52664 0.0601,-0.13984 0.17714,-0.25156 0.31416,-0.29999 0.0783,-0.0277 0.48234,-0.0342 2.12571,-0.0342 h 2.02904 l 0.12903,0.0681 c 0.15274,0.0806 0.25039,0.18876 0.28654,0.31745 0.0144,0.0513 0.12838,0.77393 0.25324,1.60572 0.12485,0.83176 0.23217,1.53584 0.23846,1.56459 0.008,0.0414 0.0809,0.0773 0.34606,0.17254 0.3838,0.13794 0.73724,0.28487 0.98631,0.41004 0.0951,0.0478 0.18742,0.0812 0.20524,0.0744 0.0179,-0.007 0.58386,-0.42788 1.25782,-0.93563 0.67396,-0.50777 1.26461,-0.9396 1.31257,-0.95963 0.13663,-0.0571 0.33616,-0.0464 0.48085,0.0258 0.29188,0.14556 2.19593,2.02758 2.75732,2.72544 0.28216,0.35074 0.29117,0.36937 0.29117,0.60166 0,0.18699 -0.007,0.21621 -0.0836,0.3421 -0.046,0.0757 -0.33993,0.46659 -0.65329,0.86861 -0.944,1.21105 -1.14511,1.48167 -1.13225,1.52354 0.006,0.0215 0.0968,0.22067 0.20035,0.44247 0.10361,0.22182 0.25382,0.58124 0.33391,0.79875 l 0.14562,0.39544 0.0904,0.0142 c 0.0498,0.008 0.75542,0.11601 1.56811,0.24041 0.81271,0.12442 1.51025,0.23852 1.55014,0.25355 0.097,0.0366 0.22836,0.16514 0.29525,0.28891 0.0544,0.10055 0.0546,0.10529 0.0614,2.08985 0.007,2.21683 0.012,2.15324 -0.16197,2.35655 -0.0515,0.0604 -0.13029,0.12493 -0.17478,0.14351 -0.0768,0.0321 -0.46668,0.0949 -2.40276,0.38701 -0.46324,0.0699 -0.84477,0.12991 -0.84786,0.13342 -0.004,0.003 -0.0708,0.17598 -0.15032,0.38329 -0.1561,0.40667 -0.38868,0.93457 -0.46921,1.06503 l -0.0499,0.0808 0.17088,0.23419 c 0.30853,0.42286 0.64287,0.85468 1.16692,1.50706 0.28397,0.35352 0.54212,0.69287 0.57367,0.75414 0.0808,0.15682 0.0789,0.37922 -0.005,0.52499 -0.29646,0.51849 -2.13135,2.39797 -2.8242,2.89282 -0.28013,0.20007 -0.38467,0.24416 -0.55451,0.23381 -0.0887,-0.006 -0.19813,-0.0324 -0.26466,-0.0652 -0.0623,-0.0308 -0.45369,-0.32282 -0.86958,-0.64895 -1.37082,-1.07499 -1.57727,-1.23415 -1.59531,-1.22983 -0.009,0.002 -0.17906,0.079 -0.37612,0.17051 -0.19705,0.0915 -0.53731,0.23342 -0.75616,0.31548 l -0.39789,0.14922 -0.0201,0.15916 c -0.23153,1.83373 -0.4146,2.91429 -0.53225,3.14181 -0.0621,0.1201 -0.19627,0.23059 -0.32725,0.26949 -0.18701,0.0556 -4.00055,0.0521 -4.18239,-0.004 z m 2.92332,-8.67759 c 0.57486,-0.10782 1.15688,-0.35613 1.64698,-0.70288 0.30971,-0.21911 0.8481,-0.75725 1.06457,-1.06406 0.55503,-0.78664 0.80555,-1.65031 0.76772,-2.64655 -0.028,-0.73407 -0.18639,-1.32222 -0.51634,-1.91595 -0.52553,-0.94564 -1.4325,-1.7001 -2.4409,-2.03043 -0.86249,-0.28253 -1.96905,-0.27 -2.81849,0.0318 -1.29441,0.46003 -2.392944,1.6631 -2.722126,2.98121 -0.282768,1.13219 -0.110081,2.38275 0.455302,3.2971 0.732844,1.18519 1.870784,1.9305 3.202834,2.09771 0.29793,0.0375 1.04545,0.0108 1.36045,-0.048 z"
       id="path3" /></g></svg>
